<svg width="29" height="23" viewBox="0 0 29 23" fill="none" xmlns="http://www.w3.org/2000/svg">
<path d="M0 15.0938C0 18.665 2.92266 21.5625 6.525 21.5625H23.2C26.4036 21.5625 29 18.9885 29 15.8125C29 13.0318 27.0063 10.7094 24.36 10.1793C24.5458 9.69863 24.65 9.17305 24.65 8.625C24.65 6.24414 22.7016 4.3125 20.3 4.3125C19.4073 4.3125 18.5736 4.58203 17.8848 5.04023C16.6297 2.88398 14.287 1.4375 11.6 1.4375C7.59438 1.4375 4.35 4.65391 4.35 8.625C4.35 8.74629 4.35453 8.86758 4.35906 8.98887C1.82156 9.87383 0 12.2727 0 15.0938Z" fill="#65696D"/>
</svg>
