<svg width="17" height="20" viewBox="0 0 17 20" fill="none" xmlns="http://www.w3.org/2000/svg">
<g clip-path="url(#clip0_1_55)">
<path d="M5.46429 5.625V7.5H11.5357V5.625C11.5357 3.89844 10.1772 2.5 8.5 2.5C6.82277 2.5 5.46429 3.89844 5.46429 5.625ZM3.03571 7.5V5.625C3.03571 2.51953 5.48326 0 8.5 0C11.5167 0 13.9643 2.51953 13.9643 5.625V7.5H14.5714C15.9109 7.5 17 8.62109 17 10V17.5C17 18.8789 15.9109 20 14.5714 20H2.42857C1.08906 20 0 18.8789 0 17.5V10C0 8.62109 1.08906 7.5 2.42857 7.5H3.03571Z" fill="#65696D"/>
</g>
<defs>
<clipPath id="clip0_1_55">
<rect width="17" height="20" fill="white"/>
</clipPath>
</defs>
</svg>
